<svg id="Layer_1" data-name="Layer 1" xmlns="http://www.w3.org/2000/svg" viewBox="0 0 48 48"><title>25. Financial Growth</title><path d="M45.41,45H1.59V4a1,1,0,0,1,2,0V43H45.41a1,1,0,0,1,0,2Z"/><path d="M42.44,41.53H31.93V13.18H42.44Zm-8.51-2h6.51V15.18H33.93Z"/><path d="M29.67,41.53H19.15V20.42H29.67Zm-8.52-2h6.52V22.42H21.15Z"/><path d="M16.9,41.53H6.39V28.67H16.9Zm-8.51-2H14.9V30.67H8.39Z"/><path d="M6,26.66a1,1,0,0,1-.55-1.84L36.21,4.68a1,1,0,0,1,1.5,1.15L36,11.23a1,1,0,0,1-1.91-.62l.88-2.7L6.49,26.5A1,1,0,0,1,6,26.66Z"/><path d="M36.76,6.52h-.14l-5.36-.75a1,1,0,0,1-.86-1.13,1,1,0,0,1,1.13-.85l5.37.75a1,1,0,0,1-.14,2Z"/></svg>