<?xml version="1.0" encoding="iso-8859-1"?>
<!-- Generator: Adobe Illustrator 21.0.2, SVG Export Plug-In . SVG Version: 6.00 Build 0)  -->
<svg version="1.1" xmlns="http://www.w3.org/2000/svg" xmlns:xlink="http://www.w3.org/1999/xlink" x="0px" y="0px"
	 viewBox="0 0 64 64" style="enable-background:new 0 0 64 64;" xml:space="preserve">
<g id="css">
</g>
<g id="mobile_development">
</g>
<g id="code">
</g>
<g id="hardware_programming">
</g>
<g id="python">
</g>
<g id="development">
</g>
<g id="update">
</g>
<g id="maintenance">
</g>
<g id="peformance_testing">
</g>
<g id="programming">
</g>
<g id="hacker">
</g>
<g id="web_programming">
</g>
<g id="html">
</g>
<g id="typing">
</g>
<g id="search_1_">
</g>
<g id="android">
</g>
<g id="coding">
	<g>
		<path d="M58.4922,5.8726H5.5078C3.022,5.8726,1,7.8945,1,10.3804v43.2397c0,2.4854,2.022,4.5078,4.5078,4.5078h52.9844
			c2.4858,0,4.5078-2.0225,4.5078-4.5078V10.3804C63,7.8945,60.978,5.8726,58.4922,5.8726z M5.5078,7.8726h52.9844
			C59.875,7.8726,61,8.9976,61,10.3804v6.8882H3v-6.8882C3,8.9976,4.125,7.8726,5.5078,7.8726z M58.4922,56.1279H5.5078
			C4.125,56.1279,3,55.0029,3,53.6201V19.2686h58v34.3516C61,55.0029,59.875,56.1279,58.4922,56.1279z"/>
		<path d="M46.7236,15.7847c1.7744,0,3.2178-1.4419,3.2178-3.2144c0-1.7739-1.4434-3.2173-3.2178-3.2173
			c-1.7739,0-3.2173,1.4434-3.2173,3.2173C43.5063,14.3428,44.9497,15.7847,46.7236,15.7847z M46.7236,11.353
			c0.6714,0,1.2178,0.5459,1.2178,1.2173c0,0.6694-0.5464,1.2144-1.2178,1.2144s-1.2173-0.5449-1.2173-1.2144
			C45.5063,11.8989,46.0522,11.353,46.7236,11.353z"/>
		<path d="M37.9287,15.7847c1.7744,0,3.2178-1.4419,3.2178-3.2144c0-1.7739-1.4434-3.2173-3.2178-3.2173
			c-1.7739,0-3.2173,1.4434-3.2173,3.2173C34.7114,14.3428,36.1548,15.7847,37.9287,15.7847z M37.9287,11.353
			c0.6714,0,1.2178,0.5459,1.2178,1.2173c0,0.6694-0.5464,1.2144-1.2178,1.2144s-1.2173-0.5449-1.2173-1.2144
			C36.7114,11.8989,37.2573,11.353,37.9287,11.353z"/>
		<path d="M55.5186,15.7847c1.7739,0,3.2173-1.4419,3.2173-3.2144c0-1.7739-1.4434-3.2173-3.2173-3.2173
			c-1.7744,0-3.2178,1.4434-3.2178,3.2173C52.3008,14.3428,53.7441,15.7847,55.5186,15.7847z M55.5186,11.353
			c0.6714,0,1.2173,0.5459,1.2173,1.2173c0,0.6694-0.5459,1.2144-1.2173,1.2144s-1.2178-0.5449-1.2178-1.2144
			C54.3008,11.8989,54.8472,11.353,55.5186,11.353z"/>
		<path d="M14.4258,50.3545c-0.189,0-0.3984,0.0088-0.6196,0.0186c-0.5537,0.0254-1.478,0.0645-1.7368-0.1826
			c-0.0933-0.0889-0.1069-0.3076-0.1069-0.4307v-9.4971c0-0.3076-0.1411-0.5977-0.3833-0.7871l-2.2705-1.7793l2.2705-1.7793
			c0.2422-0.1895,0.3833-0.4795,0.3833-0.7871v-9.4971c0-0.1221,0.0137-0.3403,0.1064-0.4292
			c0.2588-0.249,1.1865-0.2085,1.7402-0.1841c0.2202,0.0098,0.4287,0.0186,0.6167,0.0186c0.5522,0,1-0.4478,1-1s-0.4478-1-1-1
			c-0.1616,0-0.3408-0.0083-0.5298-0.0166c-0.9839-0.0405-2.3335-0.1011-3.21,0.7373c-0.48,0.4595-0.7236,1.0903-0.7236,1.874
			v9.0098l-2.8916,2.2666c-0.2422,0.1895-0.3833,0.4795-0.3833,0.7871s0.1411,0.5977,0.3833,0.7871L9.9624,40.75v9.0098
			c0,0.7852,0.2437,1.416,0.7241,1.876c0.6694,0.6406,1.6138,0.7568,2.4609,0.7568c0.2622,0,0.5146-0.0107,0.7466-0.0215
			c0.1899-0.0078,0.3696-0.0166,0.5317-0.0166c0.5522,0,1-0.4473,1-1S14.978,50.3545,14.4258,50.3545z"/>
		<path d="M19.3662,43.4941c-0.4419,0.3311-0.5313,0.958-0.1997,1.3994l0.0103,0.0137c0.1948,0.2607,0.4907,0.3965,0.791,0.3965
			c0.2095,0,0.4219-0.0664,0.6035-0.2031c0.4419-0.3311,0.5264-0.9648,0.1948-1.4063C20.436,43.251,19.8096,43.1631,19.3662,43.4941
			z"/>
		<path d="M19.3662,48.8809c-0.4419,0.3311-0.5313,0.958-0.1997,1.3994l0.0103,0.0137c0.1948,0.2607,0.4907,0.3965,0.791,0.3965
			c0.2095,0,0.4219-0.0664,0.6035-0.2031c0.4419-0.3311,0.5264-0.9648,0.1948-1.4063
			C20.436,48.6387,19.8096,48.5498,19.3662,48.8809z"/>
		<path d="M19.3354,29.0835c0.1016,0.0327,0.2046,0.0483,0.3057,0.0483c0.4229,0,0.8159-0.2705,0.9521-0.6948l1.752-5.4551
			c0.1689-0.5259-0.1206-1.0889-0.6465-1.2578c-0.5278-0.1699-1.0889,0.1206-1.2578,0.6465l-1.752,5.4551
			C18.52,28.3516,18.8096,28.9146,19.3354,29.0835z"/>
		<path d="M49.1201,38.9082c0-0.5527-0.4478-1-1-1H15.8867c-0.5522,0-1,0.4473-1,1s0.4478,1,1,1h32.2334
			C48.6724,39.9082,49.1201,39.4609,49.1201,38.9082z"/>
		<path d="M43.9824,43.2939H24.5381c-0.5522,0-1,0.4473-1,1s0.4478,1,1,1h19.4443c0.5522,0,1-0.4473,1-1
			S44.5347,43.2939,43.9824,43.2939z"/>
		<path d="M37.8262,48.6807H24.5381c-0.5522,0-1,0.4473-1,1s0.4478,1,1,1h13.2881c0.5522,0,1-0.4473,1-1
			S38.3784,48.6807,37.8262,48.6807z"/>
		<path d="M14.8867,33.5176c0,0.5527,0.4478,1,1,1h32.2334c0.5522,0,1-0.4473,1-1c0-0.5522-0.4478-1-1-1H15.8867
			C15.3345,32.5176,14.8867,32.9653,14.8867,33.5176z"/>
		<path d="M24.5381,29.1313h13.7568c0.5522,0,1-0.4478,1-1s-0.4478-1-1-1H24.5381c-0.5522,0-1,0.4478-1,1
			S23.9858,29.1313,24.5381,29.1313z"/>
		<path d="M54.0376,34.6426v-9.0098c0-0.7837-0.2437-1.4141-0.7236-1.874c-0.876-0.8389-2.2261-0.7788-3.2119-0.7373
			c-0.1895,0.0083-0.3691,0.0166-0.5313,0.0166c-0.5522,0-1,0.4478-1,1s0.4478,1,1,1c0.1885,0,0.3979-0.0088,0.6182-0.0186
			c0.5557-0.0229,1.4834-0.064,1.7422,0.1841c0.0928,0.0889,0.1064,0.3071,0.1064,0.4292v9.4971
			c0,0.3076,0.1411,0.5977,0.3833,0.7871l2.2705,1.7793l-2.2705,1.7793c-0.2422,0.1895-0.3833,0.4795-0.3833,0.7871v9.4971
			c0,0.123-0.0137,0.3418-0.1069,0.4307c-0.2588,0.248-1.1851,0.208-1.7388,0.1826c-0.2217-0.0098-0.4316-0.0186-0.6211-0.0186
			c-0.5522,0-1,0.4473-1,1s0.4478,1,1,1c0.1626,0,0.3428,0.0088,0.5332,0.0166c0.2324,0.0107,0.4849,0.0215,0.7466,0.0215
			c0.8481,0,1.7935-0.1162,2.4629-0.7568c0.4805-0.46,0.7241-1.0908,0.7241-1.876V40.75l2.8916-2.2666
			c0.2422-0.1895,0.3833-0.4795,0.3833-0.7871s-0.1411-0.5977-0.3833-0.7871L54.0376,34.6426z"/>
	</g>
</g>
<g id="file">
</g>
<g id="api">
</g>
<g id="java">
</g>
<g id="xml">
</g>
<g id="security">
</g>
<g id="algorithm">
</g>
<g id="php">
</g>
<g id="eror">
</g>
<g id="bug">
</g>
<g id="c_x2B__x2B_">
</g>
<g id="search">
</g>
<g id="binary">
</g>
<g id="database_sql">
</g>
</svg>
